<svg xmlns="http://www.w3.org/2000/svg" viewBox="0 0 578 154.1"><path d="M136.5 90.8l-16.1 4.3-7.8-4.5 17.1-4.6-1.1-4.1-21.3 5.7-7.1-4 12-3.2-.9-3.1.9-3.1-12.1-3.2 7.1-4 21.4 5.7 1.1-4.1-17.2-4.8 7.8-4.5 16.2 4.3 1.1-4.1-12.1-3.3 9.1-5.3-2.1-3.7-9.1 5.3 3.2-12-4.1-1.1-4.3 16.1-28.8 16.7c8-18 18.7-30.4 29.9-36.5-24.7-18.9-59.8-13-77.1 12.4C25.6 72.6 32 106 56.6 122.7c1.7 1.1 3.4 2.1 5.1 3.1 13.6-8.2 18.4-19.3 21.2-30.1v21.1L71 128.6l3.1 3.1 8.8-8.8v10.5h4.3V123l8.8 8.7 3.1-3.1-11.9-11.9v-9l12.6 12.6 3.1-3.1-15.5-15.5v-8.2l8.8 8.8 2.3-2.3 3.1-.9L98.3 87l7.1 4 5.7 21.4 4.1-1.1-4.7-17.1 7.8 4.5 4.3 16.2 4.1-1.1-3.3-12.1 9.1 5.3 2.1-3.7-9.1-5.3 12-3.2-1-4zm-64.8-34c-3.2 3.6 2.8 5.7.4 8.4-1.3 1.4-3.6-.2-5 1.3-.9 1.1-.4 2.6-.1 3.3-1.5.1-2.3-.4-3.6 1.1-1.5 1.7 1.2 3.3-.2 4.9-2.7 1.8-5.5 1.6-5.3 6 .4 5.3 6.5 6.5 13.1 12.3 5.7 5.1 1.1 16.7-5.8 24.6-.4.5-.9.9-1.3 1.3-3.3-1.8-6.5-4-9.5-6.6-20.2-18-22.2-49-4.3-69.3 16.5-18.7 44.1-21.9 64.2-8.2-9.1 1.4-17 7.7-22.4 15.2-1.6-1.2-1.3-5.8-1.3-5.8-1.8 3.4-.7 6.5-.4 7.3-8.2 6-16.5 2-18.5 4.2zm15.4 30.8V81l5.6 3.3L96 96.5l-8.9-8.9zm7.9-7.1l-5.7-3.3L95 74l12.3 3.3c-.1 0-12.3 3.2-12.3 3.2zm90.9-13.9l-3.4 7.1C178.7 71.5 174 70 171 70c-2.4 0-3.9.8-3.9 2.7-.1 6.1 18.9 2.6 18.9 15.5 0 7.1-6.3 10.9-14.4 10.9-6 .1-12.2-2.1-16.4-5.6l3.5-7c3.6 3.2 9.2 5.5 13 5.5 2.9 0 4.6-1.1 4.6-3.1 0-6.3-19-2.5-19-15.3.1-6.9 5.7-11.1 14.4-11.1 5.2 0 10.5 1.6 14.2 4.1zM221.3 99l-16.5-22.1V99h-8.5V63h8l16.5 22.1V63h8.5v36h-8zm56.9-18.1c0 10.5-8.3 18.5-19.5 18.5-11.1 0-19.5-8-19.5-18.5s8.3-18.2 19.5-18.2 19.5 7.7 19.5 18.2zm-29.6 0c0 6 4.6 10.8 10.2 10.8s9.9-4.6 9.9-10.8c0-6.2-4.5-10.6-9.9-10.6-5.6-.1-10.2 4.6-10.2 10.6zm70 18.1l-6.7-25-6.7 25h-9.4L284 63h9.8l7 26.5 6.9-26.5h9l7 26.5 7-26.5h9.4l-12 36h-9.5zm68 3.3c-2.8 2.5-6 3.9-9.2 3.9-4.2 0-8-2.5-11.3-7.1h-.4c-10.5 0-18.9-8.1-18.9-18.2 0-10.2 8.3-18.1 18.9-18.1 10.5 0 18.8 8 18.8 18.1 0 8.5-5.9 15.5-13.9 17.5 2.5 2.7 4.9 4.1 7.3 4.1 2.1 0 4.5-1.1 7-3.2l1.7 3zm-21-7.1c8 0 14.6-6.3 14.6-14.3s-6.4-14.1-14.6-14.1-14.7 6.3-14.7 14.1 6.7 14.3 14.7 14.3zm61.7-11.1c0 9.4-5.6 15-15 15s-15.1-5.6-15.1-15V63h4.1v21.1c0 7 4.2 11.1 11.1 11.1s10.9-4.1 10.9-11.1V63h4.1l-.1 21.1zm19.3-17.2v11.8h18.1v3.9h-18.1v12.3h21V99h-25.1V63H467v3.9h-20.4zm38.6 0v11.8h18.1v3.9h-18.1v12.3h21V99h-25.1V63h24.4v3.9h-20.3zM545.4 99l-21.6-28.9V99h-4.1V63h4.2l21.6 28.9V63h4.1v36h-4.2z" fill="#fff"/></svg>