<svg version="1.0" xmlns="http://www.w3.org/2000/svg" width="1073.333" height="1073.333" viewBox="0 0 805 805"><path d="M393.8.5c-.2.1-5.2.5-11.2.9-6 .3-11.1.8-11.5 1-.3.2-4 .7-8 1-4.1.4-7.7.9-8 1.1-.4.1-2.8.6-5.6.9-14.3 1.9-40.4 8.3-60 14.7-8.2 2.7-15.9 5.3-17 5.8-1.1.5-7.6 3.3-14.5 6.2-27.3 11.4-54.5 26.9-79.7 45.5-11.9 8.8-11.9 8.9-25.7 20.7-19.9 17.2-46.3 46.4-61 67.4-2 2.9-5.1 7.5-7 10.2-11.4 16.2-27.2 45.5-36.4 67.6-10.4 24.9-20.5 58.3-23.8 79-.3 1.6-1 5.7-1.5 9-1.3 7.5-2.3 14.5-3.4 24.5-2.3 22-2.3 61.8 0 78.5.2 1.6.7 5.7 1 9 .3 3.3.8 6.7 1 7.5.2.8.6 3.5.9 6 .3 2.5.8 5.6 1.1 7 .3 1.4.8 3.8 1.1 5.5 1.1 6.5 1.5 8.3 3.3 16 9.8 42 27.1 83.7 49.5 119.8 34.4 55.4 84 102.8 141.2 135.1l10.2 5.7 4.9-2.9c13.9-8.2 35.5-24.4 50-37.4 12.5-11.3 26-25.9 37.6-40.8 11.1-14.1 24.8-36.8 33.4-55 3.6-7.4 7.1-14.7 7.9-16.2.8-1.4 1.4-3.2 1.4-4 0-.7.7-2.7 1.6-4.3 1.9-3.7 14.5-41.2 17.3-51.5l2-7.5.1 6c0 3.3.1 37.9.1 76.8v70.8l-43.6 43.6-43.6 43.7 11.3 11.3 11.3 11.3 32.2-32.2c29.6-29.6 32.3-32 32.4-29.3 0 1.7 0 18.8-.1 38.1 0 27.6.2 35.3 1.2 35.6.7.2 7.8.4 15.8.4l14.5-.1v-76.4l2.9 2.7c3 2.7 26 25.3 49.6 48.8l12.5 12.4 11.3-11.3 11.3-11.4-43.6-43.6-43.7-43.6V648c0-17.6.2-32.3.4-32.6.3-.2 21.1 20.1 46.2 45.3l45.7 45.7 11.5-11.5 11.4-11.4-57.4-57.5-57.4-57.5-.1-29.3c0-16 .1-29.2.3-29.2.2 0 14.8 14.5 32.5 32.2l32.2 32.2 5.3-5.5c11.3-11.6 11.6-11.8 22.7-14.7 11.9-3.2 11.6-2.7 8.4-13.7-.9-3.3-1.8-6.8-2-7.9-.3-1-1.2-4.4-2.1-7.5-.9-3.1-1.7-6.1-1.9-6.6-.5-2.2-1.9-7.6-5.6-21-7.3-27-9-33.7-8.6-34.1.2-.2 11.7 6 25.5 13.8l25.2 14.3 1.6 5.4c.9 2.9 1.7 5.9 1.8 6.5.2.6.8 3.1 1.5 5.6.7 2.5 1.5 5.2 1.6 6 .2.8 4 15 8.5 31.5 4.4 16.5 9.2 34 10.5 39 1.3 4.9 3.1 11.7 4 15 .9 3.3 2.5 9.1 3.5 13 1 3.8 2.3 8.2 2.9 9.7.6 1.6.8 2.8.6 2.8-.2 0 0 1.1.5 2.5s1.2 3.6 1.5 4.8c2.1 9.6 4 15.7 4.9 15.7 1.7-.1 28.6-7.7 29.2-8.3.3-.2-.9-5.6-2.6-11.8-1.7-6.3-3.8-13.9-4.6-16.9-5-18.6-8.7-32.1-10-36.5-2.6-9-16.4-59.7-16.4-60.2 0-.8 55.8 32.1 56.7 33.4.6 1 2.7 7.9 4.7 15.3 3.6 13.8 4.8 18.5 8.6 32.5 1.2 4.4 2.3 8.7 2.5 9.5.2.8 2.4 8.9 4.8 18 2.5 9.1 6 21.9 7.7 28.6 1.7 6.6 3.5 12.6 3.9 13.2 1.1 1.9 30.7-6.8 30.3-8.8-.2-.8-2.5-9.4-5.2-19-12.1-44.3-18-66-18-67.2 0-.4 7.5 3.7 16.8 9.1C730 597 749.2 608 749.9 608c1.2 0 16.1-26.4 15.3-27.2-.7-.6-6.3-3.9-47.5-27.7-9.8-5.7-17.7-10.5-17.5-10.6.3-.3 28.7-8 33-9 1.6-.3 49.5-13.1 52.8-14.1 1.4-.3 1.1-2.5-2-15.1-2-8.1-4.1-14.8-4.7-15-.7-.3-6.9 1.2-14 3.1-15.1 4.2-65.1 17.6-67.4 18.1-2.7.6-24.1 6.4-27.4 7.4-8.4 2.6-8.8 2.6-19.7-3.7-5.7-3.2-12.3-7-14.8-8.4-2.5-1.4-8.5-4.8-13.3-7.7-4.9-2.8-9.1-5.1-9.3-5.1-.2 0-2.3-1.2-4.6-2.7l-4.2-2.6 7.9-2.2c4.4-1.3 19-5.2 32.5-8.9 13.5-3.6 36.2-9.8 50.5-13.7 28.9-7.8 26.8-7.3 31.2-8.3 3.6-.8 3.6-.8.7-10.6-.7-2.5-2.4-8.1-3.7-12.5-2-6.7-2.6-7.9-4.3-7.7-1 .2-23 6-48.9 12.9-25.8 6.9-47.7 12.7-48.5 12.9-.8.1-6.4 1.6-12.5 3.3-6 1.6-18.6 5-27.8 7.5l-16.9 4.5-25.8-14.7c-14.2-8.1-25.8-14.8-25.7-14.8.3-.3 35.3-9.7 61.2-16.4 11.2-3 25.9-7 26.2-7.3.1-.2-1.1-4.8-2.7-10.2-1.6-5.5-3-10.9-3-12 .1-1.1 1.3-6.5 2.9-12 1.6-5.5 2.6-10.3 2.2-10.6-.3-.4-13.4-4.1-29.1-8.3-51.8-14-58.1-15.9-57.3-16.6.4-.4 12-7.1 25.6-14.8l24.8-14.1 9.2 2.5c11.8 3.3 8.9 2.5 41.2 11.1 15.4 4.2 39.5 10.6 53.5 14.4 38.9 10.5 53.1 14.1 53.5 13.7.2-.2 1.6-4.7 3-9.8 1.5-5.2 3.1-11.1 3.6-13 2.1-7.4 2.6-6.9-12.1-11.1-7.4-2.1-14.4-4-15.5-4.3-1.1-.2-13.5-3.6-27.5-7.6-14-3.9-26.2-7.3-27-7.5-.8-.2-5.8-1.5-11-3-5.2-1.4-12-3.3-15-4.1-3-.8-7.9-2.2-10.8-3l-5.4-1.6 17.3-9.9c9.5-5.4 17.4-9.9 17.5-9.9.1 0 5.1-2.9 11.2-6.4l11.1-6.5 14.8 3.9c8.1 2.2 16.2 4.4 17.8 4.9 3.1 1 14.7 4 17.6 4.6.9.2 4.7 1.2 8.5 2.3 3.8 1.1 17.5 4.8 30.4 8.2 12.9 3.4 24.8 6.6 26.4 7.1 1.7.5 3.3.6 3.7.2.3-.5 2.1-6.2 3.8-12.8 1.8-6.6 3.6-13 4.1-14.2.5-1.3.6-2.5 0-2.8-.5-.3-6-1.9-12.2-3.6-6.2-1.6-15.3-4.1-20.3-5.5-4.9-1.3-13-3.5-18-4.8-4.9-1.4-14.2-3.9-20.5-5.6-6.3-1.7-12.8-3.5-14.3-3.8-2.5-.6.7-2.8 30.2-19.7 18.2-10.5 33.1-19.4 33.1-19.9s-3.4-6.9-7.6-14.1l-7.7-13.2-32.4 18.9c-17.9 10.3-32.8 18.8-33.2 18.8-.4 0 1.2-7.3 3.6-16.3 13.9-51.9 17.5-65.5 17.9-68.2.5-3 .5-3-6.8-4.9-7.7-1.9-10.4-2.6-18-5-4.3-1.3-4.8-1.3-5.2.2-.9 2.9-11.9 43.9-21.6 80.2-5.1 19-9.8 35.4-10.5 36.5-.7 1.1-3.5 3.2-6.1 4.6-5.6 3-15.2 8.5-17.4 9.9-1.4.9-71.6 41.5-80 46.3-9.6 5.4-82 47.2-97.5 56.3-4.9 2.9-9.1 5.1-9.2 5-.2-.1 1.1-3 2.7-6.4 1.7-3.4 3-6.4 3-6.7 0-.6 12.9-26.5 19.2-38.5 19-36.2 47.1-79.6 68-105.2 2.9-3.6 6.8-8.3 8.6-10.6 29.5-36.3 68.9-71 106.1-93.6l12.2-7.4-7.6-5.6c-17.4-12.9-37.6-25.1-60-36.2-19-9.4-36-16.2-60-23.8-12.6-4-43.9-10.8-55.5-12.2-1.9-.2-4.5-.6-5.8-.8-1.3-.3-5.7-.8-9.8-1.1-4.2-.4-8.5-.9-9.7-1.1-2.3-.5-51.4-1.4-51.9-.9zm50.4 22.9c2 .2 6.5.7 10 1.1 30.6 3.3 64.9 11.9 93.8 23.5 20.5 8.2 41.8 19 59.3 30.3 4.3 2.7 7.6 5.1 7.4 5.4-.3.2-1.7.6-3.3.9-19.1 3.3-44.5 12.6-62.9 22.7-12.6 7-33.9 21.4-39.5 26.8-.8.8-4.2 3.6-7.5 6.4-12.2 10.2-29.3 28.4-41 43.4l-7.2 9-2.2 2.6-1.8-2.5c-4.5-6.1-7.2-17.9-7.5-32.3-.1-3.7-.3-6.7-.5-6.7s-1.3 2.1-2.3 4.6c-5.6 12.9-6 32.7-1.1 45.6 1 2.8-.4 4.3-8.6 8.9-16.2 9.3-32.2 15.1-47.8 17.4-2.2.4-5.3.9-7 1.2-1.6.3-16 .7-32 .8-31 .1-34.7.6-39.6 5.2-4.3 4-7.4 11.1-7.3 17.1.1 5.3.5 6.3 10.2 24.5 3.5 6.5 4.1 8.4 3.7 11.9-1.3 9.7-7 13-22.2 13-12.2 0-16.7 1.7-19.8 7.4-2.4 4.4-2.8 11.8-1 17.8l1.4 4.4-7.9.1c-8.4.1-10.5.8-15.8 5.6-6.9 6.2-7.5 10-3.6 21.8 2.9 8.8 2.7 13.1-.9 16.4-1.2 1.2-7.4 4.7-13.7 7.8-20.2 10.1-24.3 15.2-24.7 31.2-.3 14.9 3.5 24.8 14 35.4 7.1 7.3 14.5 12.8 39.2 29.1 32.2 21.2 47.7 34.3 54 45.5 6.4 11.5 9.2 30.1 7.1 46.8-3.2 25.3-16.2 56.9-35.5 86.5-9.4 14.4-23.7 32.6-31.8 40.5l-3.5 3.4-4.6-2.8c-2.6-1.5-5.4-3-6.2-3.4-1.7-.8-1.6-.7-18-11.4-73.5-48.2-126.9-122-150-207.3-2.9-10.9-5.5-22-6.4-28-.3-1.9-.7-4.4-1-5.5-.4-2.2-1.5-9.4-2.1-13.5-.2-1.4-.6-4.3-.9-6.5-2.7-19.1-2.7-59.9-.1-82 .2-1.7.6-5.3 1-8.1.3-2.9.8-6.2 1-7.5.8-3.8 1.2-6.1 2-10.9.4-2.5.9-5.4 1.2-6.5.2-1.1.6-3.1.9-4.5.3-1.4.7-3.3 1-4.2.3-.9.6-2.5.8-3.5 1.8-9.2 9.2-32.2 15.3-47.8C118.1 150.6 200.5 73 302 40.2c13.9-4.5 31.2-9.1 39.5-10.6 23.1-4.2 29.9-5.2 45.5-6.2 5.2-.4 9.7-.8 9.8-.9.5-.5 43 .3 47.4.9zm62 350c32.6 8.7 36.6 9.7 38.3 10.2 19.4 4.9 20.3 5.4 13.4 6.8-1.3.3-7.3 1.9-13.4 3.6-6 1.6-11.9 3.2-13 3.4-1.1.3-12.1 3.2-24.5 6.6-12.4 3.4-23.5 6.3-24.7 6.6-1.2.2-3.3.8-4.6 1.3-2.1.8-5.5-.8-23.5-11.1l-21.1-12.1 11.2-6.5c6.2-3.5 13.2-7.6 15.7-9 2.5-1.4 6.5-3.8 9-5.3 2.5-1.6 4.8-2.9 5.2-2.9.4 0 14.8 3.8 32 8.4zm-85.8 44.5c.3.5 8.9 5.7 19.1 11.6 10.2 5.9 18.5 10.9 18.5 11.1 0 .3 3.3 12.9 7.4 28.2 9.3 34.5 14.7 55 15.4 58.2.3 1.7-9.7-7.8-31.7-30-22.3-22.6-32.1-33.2-32.2-34.8-.1-2.8-.1-38.2 0-42.2.1-2.9 2.2-4.2 3.5-2.1z"/></svg>