<?xml version="1.0" encoding="utf-8"?>
<!-- Generator: Adobe Illustrator 24.0.3, SVG Export Plug-In . SVG Version: 6.00 Build 0)  -->
<svg version="1.1" id="Capa_1" xmlns="http://www.w3.org/2000/svg" xmlns:xlink="http://www.w3.org/1999/xlink" x="0px" y="0px"
	 viewBox="0 0 512.2 512.2" style="enable-background:new 0 0 512.2 512.2;" xml:space="preserve">
<g>
	<g>
		<path d="M228.2,479.2c4-1.7,6.6-5.5,6.6-9.9V352.4h266.6c5.9,0,10.7-4.8,10.7-10.7V171c0-5.9-4.8-10.7-10.7-10.7H234.7V43
			c0-4.3-2.6-8.2-6.6-9.9c-4-1.6-8.6-0.7-11.6,2.3L3.1,248.3c-2,2-3.1,4.7-3.1,7.6c0,2.8,1.1,5.5,3.1,7.6l213.4,213.4
			C219.6,479.9,224.2,480.8,228.2,479.2z"/>
	</g>
</g>
</svg>
