<svg id="Capa_1" enable-background="new 0 0 511.988 511.988" height="512" viewBox="0 0 511.988 511.988" width="512" xmlns="http://www.w3.org/2000/svg"><g><path d="m504.488 141.781c4.143 0 7.5-3.358 7.5-7.5v-27.468c0-10.028-8.158-18.186-18.187-18.186h-374.297c-10.028 0-18.186 8.158-18.186 18.186v189.519l-95.982 95.983c-5.22 5.22-6.767 12.999-3.942 19.819s9.42 11.227 16.802 11.227h308.529c4.143 0 7.5-3.358 7.5-7.5s-3.357-7.5-7.5-7.5h-27.411c1.038-5.777-.77-11.77-5.045-16.045l-18.305-18.305h217.838c10.028 0 18.187-8.158 18.187-18.186v-185.254c0-4.142-3.357-7.5-7.5-7.5s-7.5 3.358-7.5 7.5v185.252c0 1.757-1.43 3.186-3.187 3.186h-22.797v-211.927c0-4.142-3.357-7.5-7.5-7.5s-7.5 3.358-7.5 7.5v211.928h-195.042l-27.278-27.278c-2.929-2.929-7.678-2.929-10.606 0-2.929 2.929-2.929 7.678 0 10.606l60.583 60.584c1.31 1.31.995 2.737.69 3.472-.304.735-1.091 1.967-2.943 1.967h-263.214c-1.852 0-2.639-1.232-2.943-1.967s-.619-2.163.69-3.472l110.547-110.547c12.854-12.854 33.77-12.855 46.625 0l24.303 24.303c2.929 2.929 7.678 2.929 10.606 0 2.929-2.929 2.929-7.678 0-10.606l-24.303-24.303c-7.442-7.442-16.742-11.912-26.419-13.432v-164.709h336.5c1.757 0 3.187 1.429 3.187 3.186v27.468c0 4.141 3.357 7.499 7.5 7.499zm-362.187 126.555c-9.492 1.491-18.615 5.829-25.983 13.017v-174.54c0-1.757 1.429-3.186 3.186-3.186h22.797z"/><path d="m323.818 298.064c.69 0 1.393-.096 2.088-.297 29.398-8.505 49.931-35.83 49.931-66.448 0-38.148-31.035-69.184-69.184-69.184-38.147 0-69.183 31.036-69.183 69.184 0 30.039 19.185 56.473 47.739 65.778 3.94 1.283 8.172-.87 9.454-4.807 1.283-3.938-.869-8.171-4.808-9.455-22.361-7.287-37.385-27.99-37.385-51.516 0-29.877 24.306-54.184 54.183-54.184s54.184 24.307 54.184 54.184c0 23.979-16.078 45.379-39.099 52.039-3.979 1.151-6.271 5.31-5.12 9.289.949 3.282 3.946 5.417 7.2 5.417z"/><path d="m285.988 199.968c-3.892-1.414-8.195.594-9.611 4.485-2.479 6.821-3.846 15.495-3.846 24.425 0 9.701 1.58 18.936 4.45 26.002 5.045 12.425 12.416 14.28 16.36 14.28 3.204 0 8.668-1.224 13.311-8.34 4.643 7.117 10.106 8.34 13.311 8.34 3.945 0 11.316-1.855 16.361-14.28 2.869-7.067 4.449-16.301 4.449-26.002 0-8.933-1.366-17.607-3.847-24.426-1.415-3.892-5.719-5.9-9.611-4.484s-5.9 5.72-4.484 9.612c1.897 5.216 2.942 12.07 2.942 19.298 0 13.843-3.661 22.374-5.811 24.81-2.149-2.437-5.811-10.967-5.811-24.81 0-4.142-3.357-7.5-7.5-7.5s-7.5 3.358-7.5 7.5c0 13.843-3.661 22.374-5.811 24.81-2.149-2.437-5.811-10.967-5.811-24.81 0-7.226 1.045-14.08 2.943-19.299 1.418-3.893-.59-8.196-4.484-9.611z"/><path d="m234.835 131.765c0-4.142-3.358-7.5-7.5-7.5h-40.308c-4.142 0-7.5 3.358-7.5 7.5s3.358 7.5 7.5 7.5h40.308c4.142 0 7.5-3.358 7.5-7.5z"/><path d="m199.967 168.608c.172-.012.346-.018.521-.018 3.361 0 6.303 2.265 7.153 5.508 1.05 4.007 5.149 6.403 9.157 5.353 4.006-1.051 6.403-5.15 5.353-9.157-2.579-9.835-11.487-16.705-21.663-16.705-.51 0-1.017.018-1.526.051-7.69.52-14.168 5.375-16.905 12.672-2.817 7.508-1.069 15.67 4.563 21.302l17.13 17.131c2.133 2.133 1.4 4.692 1.125 5.426-.39 1.04-1.412 2.809-3.877 2.976-.168.011-.338.017-.51.017-3.498 0-6.544-2.479-7.244-5.896-.83-4.058-4.793-6.678-8.851-5.844-4.058.83-6.675 4.793-5.844 8.851 2.121 10.365 11.348 17.889 21.939 17.889.513 0 1.024-.018 1.525-.052 7.69-.52 14.167-5.375 16.905-12.671 2.817-7.508 1.069-15.67-4.563-21.302l-17.13-17.131c-2.133-2.133-1.4-4.692-1.125-5.426.39-1.039 1.412-2.808 3.867-2.974z"/><path d="m427.409 323.372h-13.54c-4.143 0-7.5 3.358-7.5 7.5s3.357 7.5 7.5 7.5h13.54c4.143 0 7.5-3.358 7.5-7.5s-3.357-7.5-7.5-7.5z"/><path d="m427.409 297.319h-13.54c-4.143 0-7.5 3.358-7.5 7.5s3.357 7.5 7.5 7.5h13.54c4.143 0 7.5-3.358 7.5-7.5s-3.357-7.5-7.5-7.5z"/><path d="m401.643 408.36h-33.307c-4.143 0-7.5 3.358-7.5 7.5s3.357 7.5 7.5 7.5h33.307c4.143 0 7.5-3.358 7.5-7.5s-3.358-7.5-7.5-7.5z"/><path d="m83.45 373.956h-.111c-.012 0-.022 0-.034 0-4.127 0-7.481 3.336-7.5 7.467-.018 4.142 3.325 7.515 7.467 7.533h.111.034c4.126 0 7.481-3.336 7.5-7.467.018-4.142-3.325-7.514-7.467-7.533z"/><path d="m97.808 364.441h.11.034c4.126 0 7.48-3.336 7.499-7.467.018-4.142-3.325-7.515-7.467-7.533h-.11c-4.11-.035-7.515 3.324-7.533 7.467-.018 4.141 3.325 7.514 7.467 7.533z"/><path d="m185.143 373.956c-.011 0-.022 0-.034 0-4.126 0-7.48 3.336-7.499 7.467-.018 4.142 3.325 7.515 7.467 7.533h.11.034c4.126 0 7.481-3.336 7.5-7.467.018-4.142-3.325-7.515-7.467-7.533z"/></g></svg>