<?xml version="1.0" encoding="utf-8"?>
<!-- Generator: Adobe Illustrator 24.0.3, SVG Export Plug-In . SVG Version: 6.00 Build 0)  -->
<svg version="1.1" id="Capa_1" xmlns="http://www.w3.org/2000/svg" xmlns:xlink="http://www.w3.org/1999/xlink" x="0px" y="0px"
	 viewBox="0 0 477.9 477.9" style="enable-background:new 0 0 477.9 477.9;" xml:space="preserve">
<g>
	<g>
		<path d="M238.9,0C107,0,0,107,0,238.9s107,238.9,238.9,238.9s238.9-107,238.9-238.9C477.7,107,370.8,0.1,238.9,0z M238.9,443.7
			c-113.1,0-204.8-91.7-204.8-204.8S125.8,34.1,238.9,34.1s204.8,91.7,204.8,204.8C443.6,352,352,443.6,238.9,443.7z"/>
	</g>
</g>
<path d="M360.8,301.9l-29.4-17l25.5-15c4.7-2.8,6.3-8.8,3.5-13.5c-2.8-4.7-8.8-6.3-13.5-3.5l-35.1,20.7l-53-30.6l53-30.6l35.2,20.7
	c1.6,0.9,3.3,1.4,5,1.4c3.4,0,6.7-1.7,8.5-4.9c2.8-4.7,1.2-10.8-3.5-13.5l-25.5-15l29.5-17c4.7-2.7,6.4-8.8,3.6-13.5
	c-2.7-4.7-8.8-6.4-13.5-3.6l-29.4,17l-0.3-29.6c0-5.5-4.5-9.9-10-9.8c-5.5,0-9.9,4.5-9.8,10l0.4,40.8l-53,30.6v-61.2l35.5-20.1
	c4.8-2.7,6.4-8.7,3.7-13.5c-2.7-4.8-8.7-6.4-13.5-3.7l-25.8,14.6v-34c0-5.5-4.4-9.9-9.9-9.9s-9.9,4.4-9.9,9.9v34l-25.8-14.6
	c-4.8-2.7-10.8-1-13.5,3.7c-2.7,4.8-1,10.8,3.7,13.5l35.5,20.1v61.2l-53-30.6l0.4-40.8c0.1-5.5-4.3-9.9-9.8-10c0,0-0.1,0-0.1,0
	c-5.4,0-9.8,4.4-9.9,9.8l-0.3,29.6l-29.4-17c-4.7-2.7-10.8-1.1-13.5,3.6c-2.7,4.7-1.1,10.8,3.6,13.5l29.4,17L121,216
	c-4.7,2.8-6.3,8.8-3.5,13.5c1.8,3.1,5.1,4.9,8.5,4.9c1.7,0,3.4-0.4,5-1.4l35.2-20.7l53,30.6l-53,30.6L131,252.8
	c-4.7-2.8-10.8-1.2-13.5,3.5s-1.2,10.8,3.5,13.5l25.5,15l-29.4,17c-4.7,2.7-6.4,8.8-3.6,13.5c1.8,3.2,5.2,4.9,8.6,4.9
	c1.7,0,3.4-0.4,4.9-1.3l29.4-17l0.3,29.6c0,5.4,4.5,9.8,9.9,9.8c0,0,0.1,0,0.1,0c5.5,0,9.9-4.5,9.8-10l-0.4-40.8l53-30.6v61.2
	l-35.5,20.1c-4.8,2.7-6.4,8.7-3.7,13.5c1.8,3.2,5.2,5,8.6,5c1.6,0,3.3-0.4,4.9-1.3L229,344v34c0,5.5,4.4,9.9,9.9,9.9
	s9.9-4.4,9.9-9.9v-34l25.8,14.6c1.5,0.9,3.2,1.3,4.9,1.3c3.5,0,6.8-1.8,8.6-5c2.7-4.8,1-10.8-3.7-13.5l-35.5-20.1v-61.2l53,30.6
	l-0.4,40.8c-0.1,5.5,4.3,9.9,9.8,10c0,0,0.1,0,0.1,0c5.4,0,9.8-4.4,9.9-9.8l0.3-29.6l29.4,17c1.6,0.9,3.3,1.3,4.9,1.3
	c3.4,0,6.7-1.8,8.6-4.9C367.2,310.7,365.6,304.6,360.8,301.9z"/>
<g>
	<path d="M362.8,139.4l34.3-34.3l-21.2-21.2l-34,34C349.5,124.4,356.5,131.6,362.8,139.4z"/>
	<path d="M117.9,341.9l-38.5,38.5l21.2,21.2l38.8-38.8C131.6,356.5,124.4,349.5,117.9,341.9z"/>
</g>
</svg>
