<?xml version="1.0" standalone="no"?>
<!DOCTYPE svg PUBLIC "-//W3C//DTD SVG 20010904//EN"
 "http://www.w3.org/TR/2001/REC-SVG-20010904/DTD/svg10.dtd">
<svg version="1.0" xmlns="http://www.w3.org/2000/svg"
 width="805.000000pt" height="805.000000pt" viewBox="0 0 805.000000 805.000000"
 preserveAspectRatio="xMidYMid meet">
<metadata>
Created by potrace 1.11, written by Peter Selinger 2001-2013
</metadata>
<g transform="translate(0.000000,805.000000) scale(0.100000,-0.100000)"
fill="#000000" stroke="none">
<path d="M3938 8045 c-2 -1 -52 -5 -112 -9 -60 -3 -111 -8 -115 -10 -3 -2 -40
-7 -80 -10 -41 -4 -77 -9 -80 -11 -4 -1 -28 -6 -56 -9 -143 -19 -404 -83 -600
-147 -82 -27 -159 -53 -170 -58 -11 -5 -76 -33 -145 -62 -273 -114 -545 -269
-797 -455 -119 -88 -119 -89 -257 -207 -199 -172 -463 -464 -610 -674 -20 -29
-51 -75 -70 -102 -114 -162 -272 -455 -364 -676 -104 -249 -205 -583 -238
-790 -3 -16 -10 -57 -15 -90 -13 -75 -23 -145 -34 -245 -23 -220 -23 -618 0
-785 2 -16 7 -57 10 -90 3 -33 8 -67 10 -75 2 -8 6 -35 9 -60 3 -25 8 -56 11
-70 3 -14 8 -38 11 -55 11 -65 15 -83 33 -160 98 -420 271 -837 495 -1198 344
-554 840 -1028 1412 -1351 l102 -57 49 29 c139 82 355 244 500 374 125 113
260 259 376 408 111 141 248 368 334 550 36 74 71 147 79 162 8 14 14 32 14
40 0 7 7 27 16 43 19 37 145 412 173 515 l20 75 1 -60 c0 -33 1 -379 1 -768
l0 -708 -436 -436 -436 -437 113 -113 113 -113 322 322 c296 296 323 320 324
293 0 -17 0 -188 -1 -381 0 -276 2 -353 12 -356 7 -2 78 -4 158 -4 l145 1 0
382 0 382 29 -27 c30 -27 260 -253 496 -488 l125 -124 113 113 113 114 -436
436 -437 436 0 321 c0 176 2 323 4 326 3 2 211 -201 462 -453 l457 -457 115
115 114 114 -574 575 -574 575 -1 293 c0 160 1 292 3 292 2 0 148 -145 325
-322 l322 -322 53 55 c113 116 116 118 227 147 119 32 116 27 84 137 -9 33
-18 68 -20 79 -3 10 -12 44 -21 75 -9 31 -17 61 -19 66 -5 22 -19 76 -56 210
-73 270 -90 337 -86 341 2 2 117 -60 255 -138 l252 -143 16 -54 c9 -29 17 -59
18 -65 2 -6 8 -31 15 -56 7 -25 15 -52 16 -60 2 -8 40 -150 85 -315 44 -165
92 -340 105 -390 13 -49 31 -117 40 -150 9 -33 25 -91 35 -130 10 -38 23 -82
29 -97 6 -16 8 -28 6 -28 -2 0 0 -11 5 -25 5 -14 12 -36 15 -48 21 -96 40
-157 49 -157 17 1 286 77 292 83 3 2 -9 56 -26 118 -17 63 -38 139 -46 169
-50 186 -87 321 -100 365 -26 90 -164 597 -164 602 0 8 558 -321 567 -334 6
-10 27 -79 47 -153 36 -138 48 -185 86 -325 12 -44 23 -87 25 -95 2 -8 24 -89
48 -180 25 -91 60 -219 77 -286 17 -66 35 -126 39 -132 11 -19 307 68 303 88
-2 8 -25 94 -52 190 -121 443 -180 660 -180 672 0 4 75 -37 168 -91 292 -171
484 -281 491 -281 12 0 161 264 153 272 -7 6 -63 39 -475 277 -98 57 -177 105
-175 106 3 3 287 80 330 90 16 3 495 131 528 141 14 3 11 25 -20 151 -20 81
-41 148 -47 150 -7 3 -69 -12 -140 -31 -151 -42 -651 -176 -674 -181 -27 -6
-241 -64 -274 -74 -84 -26 -88 -26 -197 37 -57 32 -123 70 -148 84 -25 14 -85
48 -133 77 -49 28 -91 51 -93 51 -2 0 -23 12 -46 27 l-42 26 79 22 c44 13 190
52 325 89 135 36 362 98 505 137 289 78 268 73 312 83 36 8 36 8 7 106 -7 25
-24 81 -37 125 -20 67 -26 79 -43 77 -10 -2 -230 -60 -489 -129 -258 -69 -477
-127 -485 -129 -8 -1 -64 -16 -125 -33 -60 -16 -186 -50 -278 -75 l-169 -45
-258 147 c-142 81 -258 148 -257 148 3 3 353 97 612 164 112 30 259 70 262 73
1 2 -11 48 -27 102 -16 55 -30 109 -30 120 1 11 13 65 29 120 16 55 26 103 22
106 -3 4 -134 41 -291 83 -518 140 -581 159 -573 166 4 4 120 71 256 148 l248
141 92 -25 c118 -33 89 -25 412 -111 154 -42 395 -106 535 -144 389 -105 531
-141 535 -137 2 2 16 47 30 98 15 52 31 111 36 130 21 74 26 69 -121 111 -74
21 -144 40 -155 43 -11 2 -135 36 -275 76 -140 39 -262 73 -270 75 -8 2 -58
15 -110 30 -52 14 -120 33 -150 41 -30 8 -79 22 -108 30 l-54 16 173 99 c95
54 174 99 175 99 1 0 51 29 112 64 l111 65 148 -39 c81 -22 162 -44 178 -49
31 -10 147 -40 176 -46 9 -2 47 -12 85 -23 38 -11 175 -48 304 -82 129 -34
248 -66 264 -71 17 -5 33 -6 37 -2 3 5 21 62 38 128 18 66 36 130 41 142 5 13
6 25 0 28 -5 3 -60 19 -122 36 -62 16 -153 41 -203 55 -49 13 -130 35 -180 48
-49 14 -142 39 -205 56 -63 17 -128 35 -143 38 -25 6 7 28 302 197 182 105
331 194 331 199 0 5 -34 69 -76 141 l-77 132 -324 -189 c-179 -103 -328 -188
-332 -188 -4 0 12 73 36 163 139 519 175 655 179 682 5 30 5 30 -68 49 -77 19
-104 26 -180 50 -43 13 -48 13 -52 -2 -9 -29 -119 -439 -216 -802 -51 -190
-98 -354 -105 -365 -7 -11 -35 -32 -61 -46 -56 -30 -152 -85 -174 -99 -14 -9
-716 -415 -800 -463 -96 -54 -820 -472 -975 -563 -49 -29 -91 -51 -92 -50 -2
1 11 30 27 64 17 34 30 64 30 67 0 6 129 265 192 385 190 362 471 796 680
1052 29 36 68 83 86 106 295 363 689 710 1061 936 l122 74 -76 56 c-174 129
-376 251 -600 362 -190 94 -360 162 -600 238 -126 40 -439 108 -555 122 -19 2
-45 6 -58 8 -13 3 -57 8 -98 11 -42 4 -85 9 -97 11 -23 5 -514 14 -519 9z
m504 -229 c20 -2 65 -7 100 -11 306 -33 649 -119 938 -235 205 -82 418 -190
593 -303 43 -27 76 -51 74 -54 -3 -2 -17 -6 -33 -9 -191 -33 -445 -126 -629
-227 -126 -70 -339 -214 -395 -268 -8 -8 -42 -36 -75 -64 -122 -102 -293 -284
-410 -434 -28 -35 -60 -75 -72 -90 l-22 -26 -18 25 c-45 61 -72 179 -75 323
-1 37 -3 67 -5 67 -2 0 -13 -21 -23 -46 -56 -129 -60 -327 -11 -456 10 -28 -4
-43 -86 -89 -162 -93 -322 -151 -478 -174 -22 -4 -53 -9 -70 -12 -16 -3 -160
-7 -320 -8 -310 -1 -347 -6 -396 -52 -43 -40 -74 -111 -73 -171 1 -53 5 -63
102 -245 35 -65 41 -84 37 -119 -13 -97 -70 -130 -222 -130 -122 0 -167 -17
-198 -74 -24 -44 -28 -118 -10 -178 l14 -44 -79 -1 c-84 -1 -105 -8 -158 -56
-69 -62 -75 -100 -36 -218 29 -88 27 -131 -9 -164 -12 -12 -74 -47 -137 -78
-202 -101 -243 -152 -247 -312 -3 -149 35 -248 140 -354 71 -73 145 -128 392
-291 322 -212 477 -343 540 -455 64 -115 92 -301 71 -468 -32 -253 -162 -569
-355 -865 -94 -144 -237 -326 -318 -405 l-35 -34 -46 28 c-26 15 -54 30 -62
34 -17 8 -16 7 -180 114 -735 482 -1269 1220 -1500 2073 -29 109 -55 220 -64
280 -3 19 -7 44 -10 55 -4 22 -15 94 -21 135 -2 14 -6 43 -9 65 -27 191 -27
599 -1 820 2 17 6 53 10 81 3 29 8 62 10 75 8 38 12 61 20 109 4 25 9 54 12
65 2 11 6 31 9 45 3 14 7 33 10 42 3 9 6 25 8 35 18 92 92 322 153 478 394
999 1218 1775 2233 2103 139 45 312 91 395 106 231 42 299 52 455 62 52 4 97
8 98 9 5 5 430 -3 474 -9z m620 -3500 c326 -87 366 -97 383 -102 194 -49 203
-54 134 -68 -13 -3 -73 -19 -134 -36 -60 -16 -119 -32 -130 -34 -11 -3 -121
-32 -245 -66 -124 -34 -235 -63 -247 -66 -12 -2 -33 -8 -46 -13 -21 -8 -55 8
-235 111 l-211 121 112 65 c62 35 132 76 157 90 25 14 65 38 90 53 25 16 48
29 52 29 4 0 148 -38 320 -84z m-858 -445 c3 -5 89 -57 191 -116 102 -59 185
-109 185 -111 0 -3 33 -129 74 -282 93 -345 147 -550 154 -582 3 -17 -97 78
-317 300 -223 226 -321 332 -322 348 -1 28 -1 382 0 422 1 29 22 42 35 21z"/>
</g>
</svg>
