<?xml version="1.0" encoding="utf-8"?>
<!-- Generator: Adobe Illustrator 24.0.3, SVG Export Plug-In . SVG Version: 6.00 Build 0)  -->
<svg version="1.1" id="Layer_1" xmlns="http://www.w3.org/2000/svg" xmlns:xlink="http://www.w3.org/1999/xlink" x="0px" y="0px"
	 viewBox="0 0 578 154.1" style="enable-background:new 0 0 578 154.1;" xml:space="preserve">
<style type="text/css">
	.st0{fill:#FFFFFF;}
</style>
<path class="st0" d="M136.5,90.8l-16.1,4.3l-7.8-4.5l17.1-4.6l-1.1-4.1l-21.3,5.7l-7.1-4l12-3.2l-0.9-3.1l0.9-3.1L100.1,71l7.1-4
	l21.4,5.7l1.1-4.1l-17.2-4.8l7.8-4.5l16.2,4.3l1.1-4.1l-12.1-3.3l9.1-5.3l-2.1-3.7l-9.1,5.3l3.2-12l-4.1-1.1l-4.3,16.1L89.4,72.2
	c8-18,18.7-30.4,29.9-36.5c-24.7-18.9-59.8-13-77.1,12.4C25.6,72.6,32,106,56.6,122.7c1.7,1.1,3.4,2.1,5.1,3.1
	c13.6-8.2,18.4-19.3,21.2-30.1v21.1L71,128.6l3.1,3.1l8.8-8.8v10.5h4.3V123l8.8,8.7l3.1-3.1l-11.9-11.9v-9l12.6,12.6l3.1-3.1
	l-15.5-15.5v-8.2l8.8,8.8l2.3-2.3l3.1-0.9l-3.3-12.1l7.1,4l5.7,21.4l4.1-1.1l-4.7-17.1l7.8,4.5l4.3,16.2l4.1-1.1l-3.3-12.1l9.1,5.3
	l2.1-3.7l-9.1-5.3l12-3.2L136.5,90.8L136.5,90.8z M71.7,56.8c-3.2,3.6,2.8,5.7,0.4,8.4c-1.3,1.4-3.6-0.2-5,1.3
	c-0.9,1.1-0.4,2.6-0.1,3.3c-1.5,0.1-2.3-0.4-3.6,1.1c-1.5,1.7,1.2,3.3-0.2,4.9c-2.7,1.8-5.5,1.6-5.3,6c0.4,5.3,6.5,6.5,13.1,12.3
	c5.7,5.1,1.1,16.7-5.8,24.6c-0.4,0.5-0.9,0.9-1.3,1.3c-3.3-1.8-6.5-4-9.5-6.6c-20.2-18-22.2-49-4.3-69.3
	c16.5-18.7,44.1-21.9,64.2-8.2c-9.1,1.4-17,7.7-22.4,15.2c-1.6-1.2-1.3-5.8-1.3-5.8c-1.8,3.4-0.7,6.5-0.4,7.3
	C82,58.6,73.7,54.6,71.7,56.8z M87.1,87.6V81l5.6,3.3L96,96.5C96,96.5,87.1,87.6,87.1,87.6z M95,80.5l-5.7-3.3L95,74l12.3,3.3
	C107.2,77.3,95,80.5,95,80.5z"/>
<path class="st0" d="M185.9,66.6l-3.4,7.1C178.7,71.5,174,70,171,70c-2.4,0-3.9,0.8-3.9,2.7C167,78.8,186,75.3,186,88.2
	c0,7.1-6.3,10.9-14.4,10.9c-6,0.1-12.2-2.1-16.4-5.6l3.5-7c3.6,3.2,9.2,5.5,13,5.5c2.9,0,4.6-1.1,4.6-3.1c0-6.3-19-2.5-19-15.3
	c0.1-6.9,5.7-11.1,14.4-11.1C176.9,62.5,182.2,64.1,185.9,66.6z M221.3,99l-16.5-22.1V99h-8.5V63h8l16.5,22.1V63h8.5v36
	C229.3,99,221.3,99,221.3,99z M278.2,80.9c0,10.5-8.3,18.5-19.5,18.5c-11.1,0-19.5-8-19.5-18.5s8.3-18.2,19.5-18.2
	C269.9,62.7,278.2,70.4,278.2,80.9z M248.6,80.9c0,6,4.6,10.8,10.2,10.8c5.6,0,9.9-4.6,9.9-10.8c0-6.2-4.5-10.6-9.9-10.6
	C253.2,70.2,248.6,74.9,248.6,80.9z M318.6,99L311.9,74L305.2,99h-9.4L284,63h9.8l7,26.5l6.9-26.5h9l7,26.5l7-26.5h9.4l-12,36H318.6
	z M386.6,102.3c-2.8,2.5-6,3.9-9.2,3.9c-4.2,0-8-2.5-11.3-7.1h-0.4c-10.5,0-18.9-8.1-18.9-18.2c0-10.2,8.3-18.1,18.9-18.1
	c10.5,0,18.8,8,18.8,18.1c0,8.5-5.9,15.5-13.9,17.5c2.5,2.7,4.9,4.1,7.3,4.1c2.1,0,4.5-1.1,7-3.2L386.6,102.3L386.6,102.3z
	 M365.6,95.2c8,0,14.6-6.3,14.6-14.3s-6.4-14.1-14.6-14.1s-14.7,6.3-14.7,14.1S357.6,95.2,365.6,95.2L365.6,95.2z M427.3,84.1
	c0,9.4-5.6,15-15,15c-9.4,0-15.1-5.6-15.1-15V63h4.1v21.1c0,7,4.2,11.1,11.1,11.1s10.9-4.1,10.9-11.1V63h4.1L427.3,84.1L427.3,84.1z
	 M446.6,66.9v11.8h18.1v3.9h-18.1v12.3h21V99h-25.1V63H467v3.9H446.6L446.6,66.9z M485.2,66.9v11.8h18.1v3.9h-18.1v12.3h21V99h-25.1
	V63h24.4v3.9C505.5,66.9,485.2,66.9,485.2,66.9z M545.4,99l-21.6-28.9V99h-4.1V63h4.2l21.6,28.9V63h4.1v36H545.4L545.4,99z"/>
</svg>
